# xmcd
#
# Track frame offsets:
#	150
#	13451
#	29605
#	43937
#	60891
#	77164
#	92991
#	104978
#	120914
#	134680
#
# Disc length: 2047 seconds
#
# Revision: 0
# Processed by: cddbd v1.5.2PL0 Copyright (c) Steve Scherf et al.
# Submitted via: EasyCDDAExtractor 16.1.0.1
#
DISCID=8f07fd0a
DTITLE=Joe Pearles - A Snowy Christmas Night
DYEAR=2002
DGENRE=Christmas - Sacred
TTITLE0=It Came Upon A Midnight Clear
TTITLE1=Silent Night
TTITLE2=C.H.R.I.S.T.M.A.S
TTITLE3=A Silent Night
TTITLE4=Beautiful Star Of Bethlehem
TTITLE5=Mary's Little Boy
TTITLE6=O Little Town Of Bethlehem
TTITLE7=If Everyday was Like Christmas
TTITLE8=On A Snowy Christmas
TTITLE9=I'll Be Home for Christmas
EXTD=
EXTT0=
EXTT1=
EXTT2=
EXTT3=
EXTT4=
EXTT5=
EXTT6=
EXTT7=
EXTT8=
EXTT9=
PLAYORDER=
